<svg version="1.1"
	 xmlns="http://www.w3.org/2000/svg" xmlns:xlink="http://www.w3.org/1999/xlink" x="0px" y="0px" width="64px" height="64px" viewBox="0 0 64 64" overflow="visible" enable-background="new 0 0 64 64"
	 xml:space="preserve">
<title>in2glosssar</title>
<path fill="#1A568F" d="M0,0h64v64H0V0z"/>
<path fill="#FFFFFF" d="M21.9,14c-1.35,0-2.5,0.48-3.46,1.44C17.48,16.4,17,17.55,17,18.91v26.18c0,1.35,0.48,2.51,1.43,3.47
	C19.39,49.52,20.54,50,21.9,50H48V14H21.9z M31,17h8v7.46l-4-3.36l-4,3.36V17z M45,47H21.9c-0.45,0-0.83-0.3-1.15-0.62
	c-0.32-0.32-0.48-0.77-0.48-1.23s0.16-1.1,0.48-1.42c0.32-0.32,0.7-0.74,1.15-0.74H45V47z M45,40H21.9c-0.55,0-0.9,0.28-1.9,0.46
	V18.91c0-0.45,0.29-0.97,0.61-1.29C20.93,17.3,21.44,17,21.9,17H28v14l7-5.81L42,31V17h3V40z"/>
</svg>
